<svg width="120" height="120" viewBox="0 0 120 120" fill="none" xmlns="http://www.w3.org/2000/svg">
<rect width="120" height="120" transform="translate(0 0.000244141)" fill="#91989D"/>
<path d="M78.1022 53.9714C77.4587 58.0614 75.3891 61.7918 72.2596 64.5024C69.1301 67.2131 65.1425 68.7292 61.0026 68.7824V68.7824C52.7645 68.838 44.8835 72.1532 39.0829 78.0031C33.2822 83.8531 30.0338 91.7618 30.0479 100H43.6925C43.6667 95.3668 45.4755 90.9115 48.7238 87.6074C51.972 84.3033 56.3958 82.4188 61.0289 82.3656C68.7733 82.3049 76.2179 79.3637 81.9125 74.1148C87.6072 68.8659 91.1442 61.6853 91.8345 53.9714H78.1022Z" fill="white"/>
<path d="M30.0303 53.9714V82.0324C33.2808 76.4177 37.9814 71.7807 43.6398 68.607V53.9714H30.0303Z" fill="white"/>
<path d="M60.985 33.5572C65.1862 33.6085 69.2294 35.1664 72.3789 37.9473C75.5284 40.7283 77.5749 44.5475 78.146 48.7101H91.8607C91.2441 40.9307 87.7321 33.6655 82.0187 28.3499C76.3053 23.0343 68.8061 20.0549 61.0025 20.0002V20.0002C53.1959 20.0505 45.6923 23.028 39.9752 28.344C34.258 33.6601 30.7436 40.9277 30.1267 48.7101H43.8415C44.4121 44.5505 46.4561 40.7336 49.6019 37.953C52.7478 35.1724 56.7868 33.6127 60.985 33.5572V33.5572Z" fill="white"/>
</svg>
